<svg version="1" xmlns="http://www.w3.org/2000/svg" width="1410.667" height="1410.667" viewBox="0 0 1058.000000 1058.000000"><path d="M260.9 247.5c-.2.2-3.4.6-7.1.9-3.7.4-7.5.9-8.6 1.1-1 .2-4.3.6-7.2 1-5.7.7-6.3.8-13 2.4-2.5.5-5.6 1.2-7 1.4-9.1 1.7-31.2 8.9-45.5 15-46.5 19.6-86.8 51.2-116.7 91.5-5 6.7-14.8 21.1-14.8 21.8 0 .2-1.2 2.3-2.6 4.6C26.5 406 12.2 442.7 7 467.5 1.7 492.6.6 503.9.6 529c0 20.6 1.3 36.7 3.9 49 .3 1.4.8 4 1.1 5.9 1 6.1 1.3 7.4 5 20.6 9.9 35.7 27.9 70.9 51.6 100.7 8.4 10.7 29.6 32.4 38.3 39.3 2.8 2.2 5.2 4.3 5.5 4.6 1.3 1.6 22.5 16.2 30 20.7 10 6 16.4 8 24 7.6 18.1-1 31.8-14.9 32.6-33 .4-8.2-1.3-14.6-5.6-20.9-3.9-5.6-6.1-7.4-17.5-14.5-41.6-25.9-73.8-66.6-89.1-113-2.9-8.8-6.1-21-7-26.6-.3-2.1-1-5.8-1.5-8.1-2.7-12.6-3-48.2-.4-62.3.1-.8.6-3.5 1-6 7.4-46 33.6-92.9 69-123.5 2.8-2.4 6.4-5.5 8-7 4.6-4 24.2-16.8 32-21 21.2-11.2 43-18.5 69.2-23 15-2.6 45.2-2.5 62.3.1 3.8.6 4.6.7 13.5 2.4 14.2 2.8 39.9 11.9 52.3 18.7 15.8 8.6 18.2 9.5 27 9.5 13.3 0 24.2-7 31-19.7 2.3-4.4 2.6-6.1 2.6-14.5s-.3-10.1-2.7-15c-3.9-7.6-7.6-11.5-16-16.4-17.1-10-40.1-19.6-61.2-25.5-19.2-5.4-25.1-6.6-41-8.6-3.3-.3-7.1-.9-8.5-1.2-2.8-.6-48.6-1.4-49.1-.8zM700 257.6c-10.6 2.8-28.2 9.1-37.5 13.4-10.5 4.8-26.3 12.8-29.3 14.8-1.5 1-7.9 5.3-14.2 9.5-16.2 10.7-26.5 19.2-41.5 34.2-47.7 47.5-74.9 105.5-82 174.2-.4 3.5-.8 13.1-1 21.5-.4 15.6-1.2 28.8-2 33-.3 1.2-.9 4.8-1.5 7.8-.5 3-1.1 6.4-1.4 7.5-.2 1.1-.9 4.2-1.5 7-1.9 8.5-4.8 16.9-10.6 30.8-15.2 36.8-41.2 68.7-75.7 93-3.7 2.6-7 4.7-7.4 4.7-.4 0-1.5.6-2.3 1.4-5.4 4.6-32.1 16.8-46.6 21.1-4.9 1.5-10.9 3.4-13.3 4.4-6.7 2.6-13.7 9.3-17.4 16.9-2.9 5.8-3.3 7.6-3.3 14.7 0 6.5.5 9 2.7 13.7 7 15.1 21.5 23 37.3 20.3 17.5-3 55.3-18.4 73.2-29.8 2.4-1.5 4.5-2.7 4.8-2.7 1.2 0 26.1-17.7 30.1-21.5.6-.5 3.6-3 6.5-5.5 6.9-5.8 23.1-22 28.9-28.9 2.5-2.9 5-5.9 5.5-6.5.6-.6 3.1-3.8 5.5-7.1 2.5-3.3 4.7-6.2 5-6.5.3-.3 2.6-3.7 5.2-7.6 14.6-22 26.8-47.3 33.9-70.3 1.6-5.3 3.3-11 3.9-12.6 1.3-4.1 5.6-24.9 6.5-31 2.1-15.7 2.6-21.5 3.1-37.8.8-26.9 1.3-32.3 4.6-47.6 1.1-5.1 2.1-10.2 2.3-11.1 1.3-6.7 9.6-28.6 15-39.5 13.1-26.6 31-49.8 52.5-68 9.3-7.8 22.5-17.5 23.9-17.5.5 0 1.1-.4 1.3-.8.4-1 8.6-5.8 17.8-10.3 11.1-5.5 23.3-10.3 33.5-13.4 5-1.4 10.8-3.4 12.9-4.3 4.5-1.9 12.8-9.8 15.2-14.4 7.3-14.1 4.9-30.3-6-41-9.9-9.8-21.1-12.4-36.6-8.2zM811.3 256.8c-15.1 5.3-24.3 19.8-23 36.2.8 10.8 8.3 22.2 17.7 26.9 8.4 4.3 9.1 4.4 67.4 4.4 63.2 0 63.3 0 72.4-7.2 9.5-7.5 13.6-15.9 13.5-27.1-.2-9.1-.2-9.2-3.6-16.2-3.3-6.7-9-12.1-16.6-15.7l-5.6-2.6-58.5-.2c-54.1-.2-58.9-.1-63.7 1.5z"/><path d="M265.9 335.4c-.2.2-3.3.7-6.9 1-3.6.3-7.6.8-9 1.1-1.4.3-4.1.8-6 1.1-12.4 2.1-31.9 8.8-46.5 15.9-11.3 5.5-15.5 7.9-25.9 14.7-1.1.7-6.2 4.7-11.5 9-12.4 9.9-20.2 17.9-35.3 36.6-3.4 4.3-12.7 20.2-17.4 29.8-9.1 18.8-15.1 38.9-17.8 59.7-1.2 9.1-1.4 40.2-.3 47.7 4.6 31.9 13.8 57.1 29.5 81.6 6.4 10 11.1 13.6 18.3 14 12.4.6 21.3-7.6 21.3-19.7 0-5.1-.5-6.4-6.1-15.5-21.3-34.5-28.2-67.3-22.8-107.9 1.6-12.3 7.7-31 14.4-44.4 4-8.1 11.7-20.9 13.6-22.6.6-.6 2.3-2.6 3.7-4.5 11.3-15.5 31.8-32.1 51.9-42.1 33.1-16.5 70.8-20.7 106.1-11.8 31.4 7.9 60.2 26 82.1 51.7 18.2 21.4 31.9 54.9 34.4 84.2 1.4 18.1.4 32.1-3.7 49.5-13.8 59-62.1 105-121.5 115.9-13.5 2.5-15.8 3.3-19.4 6.8-4.5 4.4-6.1 7.9-6.2 13.7-.2 7.1 3.2 13.5 9 17.3 4.4 2.8 5 2.9 13.1 2.4 4.7-.2 9.9-.7 11.5-1.1 67.3-13.8 120.9-59 144.8-122.1 3.2-8.4 5-14.1 4.5-14.6-.1-.2.4-1.3 1-2.4.6-1.2 2.3-8.4 3.8-16 2.1-11.2 2.7-17.5 2.9-31.9.3-20.2-.7-30.5-4.6-47.5-4.1-17.8-15.5-45.8-23.5-57.6-1.3-1.9-2.4-3.9-2.4-4.4 0-.4-.4-1-.8-1.2-.5-.2-2.3-2.5-4.2-5.3-4.2-6.2-4.9-6.9-13.6-16.9-8.5-9.7-15.8-16.3-30.1-27.6-7-5.6-31-18.8-41.8-23.2-9.9-3.9-26.1-8.7-35-10.3-2.2-.4-5-.9-6.2-1.1-1.3-.3-3.8-.7-5.5-1-4.2-.7-41.3-1.6-41.9-1zM742.6 375.2c-11.4 1.6-22.5 10.6-26.6 21.5-5.8 15.7-.3 32.6 13.6 41.6 8.4 5.5 9.3 5.6 72.1 5.4l57.8-.2 6.2-3.2c7-3.7 12.1-8.7 16-15.8 2.5-4.5 2.8-5.9 2.8-15 0-8.6-.4-10.7-2.5-15-3.5-7.2-11.7-14.8-18.7-17.6-5.7-2.2-6.3-2.2-60.8-2.3-30.3-.1-57.2.2-59.9.6z"/><path d="M282.8 397.4c-.1.2-4.6.6-9.8 1-14.5.9-23 2.7-35.5 7.3-18 6.6-33.2 16.2-46.5 29.3-10.2 10.1-12.1 12.3-18.2 21.5-10.4 15.9-17.5 34.1-20.5 53.1-1 6.4-1 31.3 0 38.4 1.1 8 5.2 22.5 8.7 31.1 19.5 47.1 66.5 79.4 117 80.4 17.1.3 27.4-1.1 42.3-5.6 15.9-4.8 33.8-14.2 40.6-21.2 6.4-6.7 5.1-17.1-2.8-22.3-5.8-3.8-11.6-3.1-19.6 2.3-25.5 17.3-59 21.9-88.4 12.2-20.4-6.7-40.4-21.9-51.6-38.9-6.2-9.4-8.4-13.9-12.2-24.5-3.5-9.8-5.4-21.4-5.3-33 0-9.4.2-11.4 1.6-19 5.4-28.8 25.1-55.6 51.4-69.8 22.3-12.1 50.5-15.3 74.5-8.5 2.2.7 4.2 1.2 4.5 1.3 10.7 2.4 28.3 13 39.1 23.7 15.4 15.2 23.8 30.1 28.4 50.4 3.1 13.7 4.4 15.8 11.5 18.7 4.2 1.8 11.3.3 14.8-2.9 6.1-5.7 6-14.1-.5-34.9-1.6-5-11-25.6-12.2-26.5-.3-.3-1.2-1.7-2-3.2-3.8-7.4-17-21.9-28.6-31.4-19.2-15.6-45.6-26.1-70.1-28-4.4-.3-8.4-.7-9.1-.9-.6-.2-1.3-.2-1.5-.1zM1007.5 431c-10.2 2.3-19.3 9.7-23.8 19.3-3.7 7.6-4.1 15.1-1.6 26.3 1.1 4.9 2.2 10 2.5 11.4.2 1.4.9 4.8 1.5 7.6 1.2 6.2 1.8 13.5 2.4 28.6.6 14.1 2.6 20.2 9 27.5 4.1 4.6 10.9 8.9 17.3 10.8 4.3 1.3 14.6.7 19.7-1 9-3.1 15.7-9.2 20.3-18.5 2.5-5.2 2.7-6.3 2.7-19-.1-16.6-1.1-29.4-3.6-42-.5-3-1.2-6.9-1.4-8.6-1.1-7.7-5.6-22.6-7.9-26.3-6.4-10-16.3-16-27.5-16.5-3.6-.2-7.9 0-9.6.4z"/><path d="M268.8 456.7c-23.5 3.9-46.8 22-54.4 42-2.7 7.1.4 13.1 7.4 14 5.3.7 8.2-1.4 11.8-8.4 4.1-8.1 15.3-19.1 23.5-23.1 17.1-8.2 35.8-7.4 51.9 2.4 29.6 18.1 34.2 58.3 9.5 82.9-11 11-22.4 15.7-37.7 15.7-14.1 0-26.8-5.3-37.9-16-3.8-3.7-7.9-6.9-9.2-7.3-7.6-1.8-14.4 6.3-11.3 13.5 1.2 2.7 8.7 10.9 13.1 14.1 17.7 13.3 39.2 18.5 59.1 14.5 8.4-1.7 11.9-2.9 20.7-7.5 21.2-11 35.3-31.5 38.5-56 2-15.6-2-34.5-10-46.2-1.5-2.3-2.8-4.4-2.8-4.8 0-.5-2.5-3.4-8.5-9.9-1.1-1.2-3.8-3.5-6-5.1-2.2-1.6-4.2-3.3-4.5-3.7-.3-.4-4.5-2.6-9.3-4.8-14.3-6.7-29.1-8.9-43.9-6.3zM664.3 495.5c-10.1 3-17.6 9.6-22.2 19.5-2.2 4.6-2.6 6.9-2.6 14 0 7.2.4 9.3 2.7 14.1 4.9 9.9 13.2 16.7 23.6 19.3 3.4.8 20.9 1.1 60.7 1 50.3-.1 56.5-.3 60.9-1.8 11-3.9 19.8-13.6 22.4-24.6.3-1.4.6-5.7.6-9.5-.1-12.8-8-24.6-20.2-30.3l-5.7-2.7-58-.1c-44.5-.2-59 .1-62.2 1.1zM983.4 618.6c-8.2 1.9-12.5 4.3-18.1 10-2.9 3-5.3 5.9-5.3 6.4 0 1.5-15.3 23.8-20.2 29.5-8.5 10-17.5 18.9-26.7 26.6-9.3 7.8-23.7 18-29.5 20.9-5.7 2.9-11.5 9.1-14.8 15.8-3 6-3.3 7.5-3.2 15.3 0 7.3.4 9.4 2.8 14.3 9.2 18.7 30.7 25.4 49.2 15.1 36-19.9 74.4-57.2 98.1-95.3 7.4-11.8 9.8-19.1 8.9-27.1-.9-8.5-1.7-11-6.1-17.6-7.1-10.6-22.9-16.9-35.1-13.9zM588 671.9c-7.6 3.2-14.4 9.8-17.9 17.1-2 4.4-2.6 7.2-2.8 14-.1 7.5.2 9.2 2.7 14.7 3.8 8.2 16 20.4 35.5 35.3 2.2 1.6 5.3 4 6.9 5.3 12 9.2 40.3 24.6 59 32.1 18.7 7.5 45.6 14.8 62.9 17.1 2.7.4 5.6.8 6.5 1 10.6 2 37.8 2.5 44.4.8 22.8-5.9 32.7-32.8 19.4-52.9-6.5-9.7-15.5-14.2-30.1-15-23.4-1.2-29.7-2-43.3-5-18.6-4.2-31.7-8.7-49.2-17.2-8.4-4.1-18.6-9.8-20-11.2-1.1-1.1-7-5-7.5-5-1.3 0-18.9-14.5-24.9-20.6-13-13-27.3-16.6-41.6-10.5z"/></svg>